<svg width="40" height="40" viewBox="0 0 40 40" fill="none" xmlns="http://www.w3.org/2000/svg">
<path fill-rule="evenodd" clip-rule="evenodd" d="M20 0C8.95431 0 0 8.95431 0 20C0 31.0457 8.95431 40 20 40C31.0457 40 40 31.0457 40 20C40 8.95431 31.0457 0 20 0ZM24.0039 19.1063L21.459 21.737V8.6801C21.459 8.14558 21.0407 7.7 20.5 7.7C19.9594 7.7 19.5411 8.14558 19.5411 8.6801V21.7378L16.9912 19.1061C16.6146 18.7174 16.0045 18.7174 15.628 19.1061C15.2565 19.4894 15.2567 20.1026 15.6281 20.486L19.821 24.8084C20.0031 24.9962 20.251 25.101 20.5 25.101C20.7431 25.101 20.9941 25.0054 21.181 24.8064L25.3672 20.4858C25.7387 20.1025 25.7387 19.4894 25.3672 19.1061C24.9907 18.7174 24.3804 18.7176 24.0039 19.1063ZM31.3411 18.4254C30.8004 18.4254 30.3821 18.871 30.3821 19.4055V25.5919C30.3821 27.1175 29.1802 28.3398 27.729 28.3398H13.271C11.8156 28.3398 10.6179 27.1132 10.6179 25.5919V19.3048C10.6179 18.7703 10.1996 18.3247 9.65897 18.3247C9.11833 18.3247 8.70001 18.7703 8.70001 19.3048V25.5919C8.70001 28.1821 10.744 30.3 13.271 30.3H27.729C30.2614 30.3 32.3 28.1766 32.3 25.5919V19.4055C32.3 18.8775 31.8831 18.4254 31.3411 18.4254Z" fill="#FF3B30"/>
</svg>
