<svg width="40" height="40" viewBox="0 0 40 40" fill="none" xmlns="http://www.w3.org/2000/svg">
<path fill-rule="evenodd" clip-rule="evenodd" d="M20 0C8.95431 0 0 8.95431 0 20C0 31.0457 8.95431 40 20 40C31.0457 40 40 31.0457 40 20C40 8.95431 31.0457 0 20 0ZM9 19.3C9 19.5 9.09231 19.8 9.27692 20L9.46154 20.3L16.6615 28.7C16.8462 28.9 17.0308 29 17.3077 29C17.5846 29 17.7692 28.9 17.9538 28.7L32.7231 13.1C33.0923 12.7 33.0923 12.1 32.7231 11.7L32.4308 11.3C32.0615 10.9 31.5077 10.9 31.1385 11.3H31.0462L17.6769 25.2C17.4923 25.4 17.2154 25.4 17.0308 25.2L10.9538 18.3L10.8615 18.2C10.4923 17.8 9.93846 17.8 9.56923 18.2L9.27692 18.6C9.09231 18.8 9 19.1 9 19.3Z" fill="#4CD964"/>
</svg>
