<svg width="40" height="40" viewBox="0 0 40 40" fill="none" xmlns="http://www.w3.org/2000/svg">
<path fill-rule="evenodd" clip-rule="evenodd" d="M20 0C8.95431 0 0 8.95431 0 20C0 31.0457 8.95431 40 20 40C31.0457 40 40 31.0457 40 20C40 8.95431 31.0457 0 20 0ZM26.6359 29.4902H27.9294C28.3462 29.4902 28.6842 29.8282 28.6841 30.2452C28.6841 30.6622 28.3462 31 27.9293 31H12.7548C12.338 31 12 30.6621 12 30.2452C12 29.8283 12.338 29.4903 12.7548 29.4903H14.0484V27.1717C14.0484 24.8259 15.3355 22.6697 17.6731 21.1003C17.9639 20.9049 18.1446 20.4836 18.1446 20C18.1446 19.5164 17.9639 19.0951 17.6732 18.8998C15.3355 17.3303 14.0484 15.1741 14.0484 12.8284V10.5096H12.7548C12.338 10.5096 12 10.1717 12 9.75474C12 9.33785 12.338 9 12.7548 9H27.9294C28.3462 9 28.6842 9.33785 28.6842 9.75481C28.6842 10.1718 28.3462 10.5097 27.9294 10.5097H26.636V12.8283C26.6359 15.1741 25.3485 17.3303 23.0111 18.8997C22.7203 19.0951 22.5397 19.5163 22.5397 19.9999C22.5397 20.4834 22.7203 20.9048 23.011 21.1C25.3485 22.6697 26.6359 24.8259 26.6359 27.1716V29.4902ZM18.5146 22.3537C17.4103 23.095 15.5581 24.7068 15.5581 27.1716V29.4902H25.1262V27.1716C25.126 24.7068 23.2737 23.095 22.1694 22.3537C21.4559 21.8745 21.0298 20.9948 21.0298 20C21.0298 19.0054 21.4559 18.1255 22.1696 17.6463C23.2737 16.9051 25.126 15.2932 25.126 12.8284L25.1262 10.5097H15.5581V12.8284C15.5581 15.2932 17.4103 16.9051 18.5146 17.6464C19.2282 18.1254 19.6543 19.0053 19.6543 20C19.6543 20.9947 19.2282 21.8746 18.5146 22.3537Z" fill="#FFCC00"/>
</svg>
